PathFileType	4	(X/Y/Z)	outputs\dynamic_markers.trc
DataRate	CameraRate	NumFrames	NumMarkers	Units	OrigDataRate	OrigDataStartFrame	OrigNumFrames
360.000000	360.000000	4	48	m	360.000000	0	669
Frame#	Time	C7			CLAV			LANK			LASI			LBAK			LBHD			LELB			LFHD			LFIN			LFRM			LHEE			LIC			LKNE			LMANK			LMELB			LMKNE			LPSI			LSHO			LTHI			LTIB			LTOE			LUPA			LWRA			LWRB			RANK			RASI			RBAK			RBHD			RELB			RFHD			RFIN			RFRM			RHEE			RIC			RKNE			RMANK			RMELB			RMKNE			RPSI			RSHO			RTHI			RTIB			RTOE			RUPA			RWRA			RWRB			STRN			T10			
		X1	Y1	Z1	X2	Y2	Z2	X3	Y3	Z3	X4	Y4	Z4	X5	Y5	Z5	X6	Y6	Z6	X7	Y7	Z7	X8	Y8	Z8	X9	Y9	Z9	X10	Y10	Z10	X11	Y11	Z11	X12	Y12	Z12	X13	Y13	Z13	X14	Y14	Z14	X15	Y15	Z15	X16	Y16	Z16	X17	Y17	Z17	X18	Y18	Z18	X19	Y19	Z19	X20	Y20	Z20	X21	Y21	Z21	X22	Y22	Z22	X23	Y23	Z23	X24	Y24	Z24	X25	Y25	Z25	X26	Y26	Z26	X27	Y27	Z27	X28	Y28	Z28	X29	Y29	Z29	X30	Y30	Z30	X31	Y31	Z31	X32	Y32	Z32	X33	Y33	Z33	X34	Y34	Z34	X35	Y35	Z35	X36	Y36	Z36	X37	Y37	Z37	X38	Y38	Z38	X39	Y39	Z39	X40	Y40	Z40	X41	Y41	Z41	X42	Y42	Z42	X43	Y43	Z43	X44	Y44	Z44	X45	Y45	Z45	X46	Y46	Z46	X47	Y47	Z47	X48	Y48	Z48	

1	0	0.04955388978123665	1.636159658432007	0.6956625580787659	0.1123447716236115	1.531776070594788	0.5799649357795715	-0.02027905359864235	0.07237177342176437	0.5460944175720215	-0.01374070066958666	1.111002326011658	0.586857795715332	-0.05923615023493767	1.46458888053894	0.7557666301727295	0.01307882647961378	1.798020720481873	0.5627536773681641	-0.200002521276474	1.254942417144775	0.5298988819122314	0.1388297528028488	1.825799465179443	0.522233784198761	0.1052861139178276	1.332804560661316	0.4586844742298126	-0.07879427820444107	1.283247470855713	0.4774113893508911	0.02836774662137032	0.07679629325866699	0.6271105408668518	-0.09265466779470444	1.16656768321991	0.6337287425994873	-0.05367382243275642	0.5739157795906067	0.5228878855705261	0.09655186533927917	0.08340708911418915	0.5574963092803955	-0.1682175695896149	1.237524151802063	0.6244598627090454	0.06651981920003891	0.5635064840316772	0.5494996905326843	-0.03554031625390053	1.153222799301147	0.7898606061935425	-0.09416061639785767	1.607009291648865	0.5663650035858154	-0.1095519587397575	0.7405471205711365	0.5633393526077271	-0.06761059165000916	0.4412250518798828	0.5253210067749023	0.06186626479029655	0.07896832376718521	0.3686778843402863	-0.165159210562706	1.427937626838684	0.5307867527008057	0.05494991317391396	1.309823751449585	0.5055882930755615	0.03719751536846161	1.252837896347046	0.4459057748317719	0.108496218919754	0.07234269380569458	0.9583448171615601	0.2097675353288651	1.100200772285461	0.7191082835197449	0.107251301407814	1.459418654441833	0.8263304233551025	0.05758650600910187	1.780175924301147	0.7104036211967468	0.3586663901805878	1.269986510276794	0.859768271446228	0.1950390636920929	1.818639039993286	0.6692762970924377	0.2941110134124756	1.311060547828674	0.5073043704032898	0.3272189497947693	1.273014187812805	0.699274480342865	0.008780510164797306	0.07655419409275055	0.9790784120559692	0.2126272916793823	1.15637731552124	0.8113189935684204	0.1828108578920364	0.5313952565193176	0.8785890340805054	0.02899977937340736	0.05145088210701942	0.8736894726753235	0.274018406867981	1.24671733379364	0.8833857774734497	0.08803880214691162	0.5391343832015991	0.7919802665710449	0.04805202409625053	1.147407174110413	0.8395918011665344	0.2577841579914093	1.591830968856812	0.7073763608932495	0.2249892354011536	0.784902811050415	0.8584181070327759	0.1752515584230423	0.3739914000034332	0.9205269813537598	0.2044514119625092	0.05985057726502419	0.7925823926925659	0.3409877121448517	1.413967609405518	0.7757652401924133	0.2382042109966278	1.28564977645874	0.6195136308670044	0.2797594964504242	1.21722948551178	0.6067728996276855	0.1239468455314636	1.346126079559326	0.5669277310371399	0.01989118568599224	1.387853741645813	0.790188729763031	
2	0.002777777777777778	0.04949482157826424	1.636085033416748	0.6953295469284058	0.1122682392597198	1.531712412834167	0.57965487241745	-0.0202297680079937	0.07235095649957657	0.5461155772209167	-0.0136765381321311	1.110844492912292	0.5864545106887817	-0.05935052037239075	1.464508533477783	0.7554044723510742	0.01302730571478605	1.79796576499939	0.562465488910675	-0.1999871730804443	1.254960298538208	0.5294301509857178	0.1387449651956558	1.825763702392578	0.5219335556030273	0.1052848547697067	1.332974195480347	0.4580755531787872	-0.07875640690326691	1.283297538757324	0.4769182205200195	0.02843688614666462	0.07681891322135925	0.6271220445632935	-0.0926867350935936	1.166482090950012	0.6332091689109802	-0.05370145663619041	0.5737714171409607	0.522321879863739	0.09659136831760406	0.08338527381420135	0.5574891567230225	-0.1681690514087677	1.23746919631958	0.6239002346992493	0.06661158055067062	0.5634545087814331	0.5488095283508301	-0.0357721634209156	1.153190851211548	0.7893772125244141	-0.09423383325338364	1.607013702392578	0.5660573244094849	-0.1096110790967941	0.7405094504356384	0.5629075765609741	-0.06763213127851486	0.4412004053592682	0.5249179005622864	0.06184595078229904	0.07881566882133484	0.3686808943748474	-0.165196031332016	1.427935838699341	0.530369758605957	0.05488057434558868	1.309973955154419	0.5050433874130249	0.03714822232723236	1.252995729446411	0.4452917575836182	0.1084453910589218	0.07234936207532883	0.9583122730255127	0.2098465710878372	1.100217580795288	0.7187973856925964	0.1072161048650742	1.459326028823853	0.8259429931640625	0.05752205476164818	1.780116081237793	0.7101069688796997	0.3586450219154358	1.269897699356079	0.8592805862426758	0.1949636191129684	1.818589925765991	0.6689900159835815	0.2940334379673004	1.311109066009521	0.5067837238311768	0.3272270262241364	1.272972941398621	0.6988095641136169	0.008726710453629494	0.07651780545711517	0.9790343046188354	0.2123860716819763	1.156306624412537	0.8111613988876343	0.1825415790081024	0.5314224362373352	0.8785459995269775	0.02896944805979729	0.05141141265630722	0.8736598491668701	0.2740377187728882	1.24656081199646	0.8828254342079163	0.08790075778961182	0.539087176322937	0.7918663620948792	0.0478382371366024	1.147302627563477	0.8391779065132141	0.2576968669891357	1.591784000396729	0.7069993615150452	0.2248045355081558	0.7849136590957642	0.8583675622940063	0.1750387847423553	0.3740097880363464	0.9205094575881958	0.2044500112533569	0.05987483635544777	0.7926149964332581	0.3409899771213531	1.413920879364014	0.7752912640571594	0.2381992191076279	1.285601377487183	0.6190069913864136	0.2798301577568054	1.217299461364746	0.6062485575675964	0.1237570494413376	1.346066951751709	0.566448986530304	0.01974258199334145	1.387780547142029	0.7898169159889221	
3	0.005555555555555556	0.0493999570608139	1.635988473892212	0.6948980689048767	0.1121484413743019	1.531620264053345	0.5791640281677246	-0.02015984058380127	0.07230948656797409	0.5461411476135254	-0.01353808213025331	1.110654354095459	0.5858968496322632	-0.05948907881975174	1.464409589767456	0.7549412846565247	0.01293598581105471	1.79787814617157	0.5620526075363159	-0.1999497711658478	1.255014538764954	0.5286524891853333	0.1386075913906097	1.825693726539612	0.5214823484420776	0.105191171169281	1.333232879638672	0.4572074711322784	-0.07873178273439407	1.28342342376709	0.4760947227478027	0.02851896360516548	0.07686430215835571	0.6271234750747681	-0.09263999760150909	1.166345953941345	0.6324583292007446	-0.05389253795146942	0.5735666751861572	0.5213406085968018	0.0966513529419899	0.08332575857639313	0.5574478507041931	-0.1681252419948578	1.237403392791748	0.6231173872947693	0.06675364822149277	0.5633288621902466	0.5479648113250732	-0.03606835752725601	1.153107881546021	0.7886632680892944	-0.09436704218387604	1.607004642486572	0.5655532479286194	-0.1096154451370239	0.7404043078422546	0.5621529221534729	-0.06760793179273605	0.44113689661026	0.5243114829063416	0.0618261843919754	0.07860006392002106	0.3686788976192474	-0.1652542054653168	1.427899479866028	0.5297631621360779	0.05476699769496918	1.310192346572876	0.5042343735694885	0.03708538040518761	1.253208518028259	0.4444571435451508	0.1083652749657631	0.07237621396780014	0.9582884311676025	0.2098353803157806	1.100124478340149	0.7184081077575684	0.1071726903319359	1.459226012229919	0.8253889083862305	0.05741779506206512	1.780020356178284	0.7096774578094482	0.3586471378803253	1.269733786582947	0.8585144877433777	0.1948228925466537	1.818503856658936	0.668488621711731	0.2938839793205261	1.311212778091431	0.5059968829154968	0.3271913528442383	1.272919058799744	0.6980897188186646	0.008644028566777706	0.07647164165973663	0.9789825081825256	0.2120175659656525	1.156219720840454	0.8109366893768311	0.1821728199720383	0.531412661075592	0.878428041934967	0.02892964147031307	0.05135751143097878	0.8736156225204468	0.2740172147750854	1.246343612670898	0.8820508718490601	0.08768467605113983	0.5390277504920959	0.7916764616966248	0.04749520868062973	1.147170782089233	0.838544487953186	0.2575856447219849	1.591714024543762	0.7064723968505859	0.2245284616947174	0.7849234342575073	0.8582985997200012	0.1747361272573471	0.3740165531635284	0.9204669594764709	0.2044382393360138	0.05994138866662979	0.7926437258720398	0.3409262597560883	1.413842678070068	0.7745715379714966	0.2382263690233231	1.285576105117798	0.6182481646537781	0.2798797488212585	1.217386245727539	0.6054632663726807	0.1235263049602509	1.345958471298218	0.5658606290817261	0.01950079761445522	1.387650489807129	0.7892622947692871	
4	0.008333333333333333	0.04929777607321739	1.635856747627258	0.6944325566291809	0.1120206341147423	1.531553030014038	0.5786525011062622	-0.02007262222468853	0.07226062566041946	0.5461487770080566	-0.01340996474027634	1.110512018203735	0.5853522419929504	-0.05965002998709679	1.464319825172424	0.7544496655464172	0.0128158675506711	1.797788739204407	0.5616304278373718	-0.1999154686927795	1.255029559135437	0.5278557538986206	0.1384662836790085	1.825620532035828	0.5210225582122803	0.1050354912877083	1.333492994308472	0.4563019275665283	-0.07885079830884933	1.283481121063232	0.4752335846424103	0.02854597195982933	0.07691496610641479	0.6271160244941711	-0.09255741536617279	1.166221141815186	0.6317465305328369	-0.05415251106023788	0.5734387636184692	0.5203419923782349	0.09672462195158005	0.08325526118278503	0.5573997497558594	-0.1681544333696365	1.237332463264465	0.6223899722099304	0.06675297766923904	0.5631644129753113	0.5472425222396851	-0.03628035634756088	1.152969598770142	0.7879107594490051	-0.09448819607496262	1.607010245323181	0.5650501847267151	-0.109735406935215	0.7402228116989136	0.5614532828330994	-0.06761887669563293	0.4410838484764099	0.5236534476280212	0.06181563064455986	0.07840269058942795	0.3686567842960358	-0.1653132289648056	1.427905559539795	0.5291358232498169	0.05468699336051941	1.310389161109924	0.5033524632453918	0.03700548410415649	1.253440260887146	0.4435540437698364	0.1082773432135582	0.07240469753742218	0.9582743048667908	0.2097095251083374	1.100005149841309	0.7180066704750061	0.1071117296814919	1.459112644195557	0.8248432874679565	0.0573088675737381	1.779921889305115	0.7092487812042236	0.3586550951004028	1.269524812698364	0.8577569723129272	0.1946834623813629	1.81840980052948	0.6680042147636414	0.2937319874763489	1.31132447719574	0.5051520466804504	0.3271100521087646	1.272869467735291	0.6973219513893127	0.008565499447286129	0.07643037289381027	0.9789267182350159	0.211647242307663	1.156127214431763	0.8106982707977295	0.1818448156118393	0.5314117074012756	0.878300666809082	0.02890397794544697	0.05130579322576523	0.8735741972923279	0.2739402055740356	1.246147036552429	0.8812627196311951	0.08744964003562927	0.5389786958694458	0.7914614677429199	0.04710843786597252	1.147047996520996	0.8379253745079041	0.2574840188026428	1.591648697853088	0.7059134840965271	0.224229171872139	0.7849253416061401	0.8581656217575073	0.1744483411312103	0.3740328848361969	0.9204277396202087	0.2044427394866943	0.05999333783984184	0.7926651835441589	0.3408196270465851	1.413764953613281	0.7738674879074097	0.2382806241512299	1.285565853118896	0.6175214648246765	0.279750257730484	1.217315912246704	0.6046968698501587	0.1232777759432793	1.345903158187866	0.5651689767837524	0.01927037909626961	1.38753616809845	0.7887316346168518	
